<?xml version="1.0" encoding="UTF-8" standalone="no"?>
<svg
   width="100%"
   height="100%"
   viewBox="0 0 534 534"
   version="1.1"
   xml:space="preserve"
   style="fill-rule:evenodd;clip-rule:evenodd;stroke-linejoin:round;stroke-miterlimit:2;"
   id="svg2"
   sodipodi:docname="debug_grid_2d.svg"
   inkscape:version="1.4.2 (f4327f4, 2025-05-13)"
   xmlns:inkscape="http://www.inkscape.org/namespaces/inkscape"
   xmlns:sodipodi="http://sodipodi.sourceforge.net/DTD/sodipodi-0.dtd"
   xmlns="http://www.w3.org/2000/svg"
   xmlns:svg="http://www.w3.org/2000/svg"><defs
   id="defs2" /><sodipodi:namedview
   id="namedview2"
   pagecolor="#ffffff"
   bordercolor="#000000"
   borderopacity="0.25"
   inkscape:showpageshadow="2"
   inkscape:pageopacity="0.0"
   inkscape:pagecheckerboard="0"
   inkscape:deskcolor="#d1d1d1"
   inkscape:zoom="1.0791986"
   inkscape:cx="211.7312"
   inkscape:cy="235.82315"
   inkscape:window-width="1920"
   inkscape:window-height="1017"
   inkscape:window-x="-8"
   inkscape:window-y="1072"
   inkscape:window-maximized="1"
   inkscape:current-layer="svg2" />
    <g
   transform="matrix(4.16667,0,0,4.16667,0,0)"
   id="g2">
        <g
   transform="matrix(8,0,0,8,0,0)"
   id="g1">
            <path
   id="path1"
   style="fill:rgb(141,165,243);fill-rule:nonzero;"
   d="M 2.9999976 1.0000187 C 1.9029976 1.0000187 1.0000187 1.9029976 1.0000187 2.9999976 L 1.0000187 13.000009 C 1.0000187 14.097009 1.9029976 14.999988 2.9999976 14.999988 L 13.000009 14.999988 C 14.097009 14.999988 14.999988 14.097009 14.999988 13.000009 L 14.999988 2.9999976 C 14.999988 1.9029976 14.097009 1.0000187 13.000009 1.0000187 L 2.9999976 1.0000187 z M 2.9999976 2.9999976 L 4.9999765 2.9999976 L 7.0000139 2.9999976 L 8.9999928 2.9999976 L 10.999972 2.9999976 L 13.000009 2.9999976 L 13.000009 4.9999765 L 13.000009 7.0000139 L 13.000009 8.9999928 L 13.000009 10.999972 L 13.000009 13.000009 L 10.999972 13.000009 L 8.9999928 13.000009 L 7.0000139 13.000009 L 4.9999765 13.000009 L 2.9999976 13.000009 L 2.9999976 10.999972 L 2.9999976 8.9999928 L 2.9999976 7.0000139 L 2.9999976 4.9999765 L 2.9999976 2.9999976 z " />
        </g>
    </g>
<path
   id="path3"
   style="fill:#fc7f7f;fill-opacity:1;stroke-width:2;stroke-linecap:round;paint-order:stroke fill markers"
   d="M 433.33301,166.66699 H 99.99903 v 66.66796 h 333.33398 z m 0,133.33398 H 99.99903 v 66.66602 h 333.33398 z" /><path
   id="rect2"
   style="fill:#8eef97;stroke-width:2;stroke-linecap:round;paint-order:stroke fill markers;fill-opacity:1"
   d="M 166.66602 100 L 166.66602 433.33398 L 233.33398 433.33398 L 233.33398 100 L 166.66602 100 z M 300 100 L 300 433.33398 L 366.66602 433.33398 L 366.66602 100 L 300 100 z " /></svg>
